<svg xmlns="http://www.w3.org/2000/svg" style="display: none;">
  <!-- Logo: modern U + mountain peak (UKD Kedarnath) -->
  <symbol id="logo-u" viewBox="0 0 24 24" fill="currentColor" fill-rule="evenodd">
    <path d="M12 1l2.2 4.2L12 4.8 9.8 5.2 12 1z"/>
    <path d="M5 6v11c0 4.2 3.5 6 7 6s7-1.8 7-6V6h-2v11c0 2.6-2 4-5 4s-5-1.4-5-4V6H5zm2 2h10v9c0 2.4-1.8 3.6-5 3.6S7 19.4 7 17V8z"/>
  </symbol>
  <!-- Phone -->
  <symbol id="phone" viewBox="0 0 24 24" fill="currentColor">
    <path d="M6.62 10.79c1.44 2.83 3.76 5.14 6.59 6.59l2.2-2.2c.27-.27.67-.36 1.02-.24 1.12.37 2.33.57 3.57.57.55 0 1 .45 1 1V20c0 .55-.45 1-1 1-9.39 0-17-7.61-17-17 0-.55.45-1 1-1h3.5c.55 0 1 .45 1 1 0 1.25.2 2.45.57 3.57.11.35.03.74-.25 1.02l-2.2 2.2z"/>
  </symbol>
  <!-- Mountain / Hills -->
  <symbol id="mountain" viewBox="0 0 24 24" fill="currentColor">
    <path d="M14 2L2 22h20L14 2zm-1.5 16.5L12 17l-.5 1.5h-2L11 14l2.5 4.5h-1zm2.5-3.5l-1.5 3h-2l3-5 1.5 2z"/>
    <path d="M12 6l4 10h-2.5L12 12l-1.5 4H8L12 6z"/>
  </symbol>
  <!-- Handshake -->
  <symbol id="handshake" viewBox="0 0 24 24" fill="currentColor">
    <path d="M11.56 4.5c.34 0 .63.18.78.44l.94 1.57.47-.78c.2-.33.55-.53.94-.53.58 0 1.05.47 1.05 1.05 0 .24-.08.46-.22.64l-2.35 3.92h2.82l2.35-3.92c.14-.18.22-.4.22-.64 0-.58-.47-1.05-1.05-1.05-.39 0-.74.2-.94.53l-.47.78.94 1.57c.15.26.44.44.78.44.27 0 .52-.12.69-.32l3.5-4.99c.25-.36.08-.87-.36-.87h-2.1l-1.5 2.25-1.5-2.25H2.86c-.44 0-.61.51-.36.87l3.5 4.99c.17.2.42.32.69.32.34 0 .63-.18.78-.44l.94-1.57-.47-.78c-.2-.33-.55-.53-.94-.53-.58 0-1.05.47-1.05 1.05 0 .24.08.46.22.64l2.35 3.92h2.82l-2.35-3.92c-.14-.18-.22-.4-.22-.64 0-.58.47-1.05 1.05-1.05.39 0 .74.2.94.53l.47.78-.94-1.57c-.15-.26-.44-.44-.78-.44-.27 0-.52.12-.69.32l-3.5 4.99c-.25.36-.08.87.36.87h2.1l1.5-2.25 1.5 2.25h4.28l1.5-2.25 1.5 2.25h2.1c.44 0 .61-.51.36-.87l-3.5-4.99c-.17-.2-.42-.32-.69-.32z"/>
  </symbol>
  <!-- Star -->
  <symbol id="star" viewBox="0 0 24 24" fill="currentColor">
    <path d="M12 2l3.09 6.26L22 9.27l-5 4.87 1.18 6.88L12 17.77l-6.18 3.25L7 14.14 2 9.27l6.91-1.01L12 2z"/>
  </symbol>
  <!-- Clipboard / Form -->
  <symbol id="clipboard" viewBox="0 0 24 24" fill="currentColor">
    <path d="M19 3h-4.18C14.4 1.84 13.3 1 12 1c-1.3 0-2.4.84-2.82 2H5c-1.1 0-2 .9-2 2v14c0 1.1.9 2 2 2h14c1.1 0 2-.9 2-2V5c0-1.1-.9-2-2-2zm-7 0c.55 0 1 .45 1 1s-.45 1-1 1-1-.45-1-1 .45-1 1-1zm2 14H7v-2h7v2zm3-4H7v-2h10v2zm0-4H7V7h10v2z"/>
  </symbol>
  <!-- Frame / Image -->
  <symbol id="frame" viewBox="0 0 24 24" fill="currentColor">
    <path d="M21 19V5c0-1.1-.9-2-2-2H5c-1.1 0-2 .9-2 2v14c0 1.1.9 2 2 2h14c1.1 0 2-.9 2-2zM8.5 13.5l2 2.51L14.5 12l4.5 6H5l3.5-4.5z"/>
  </symbol>
  <!-- Card / ID -->
  <symbol id="card" viewBox="0 0 24 24" fill="currentColor">
    <path d="M20 4H4c-1.11 0-1.99.89-1.99 2L2 18c0 1.11.89 2 2 2h16c1.11 0 2-.89 2-2V6c0-1.11-.89-2-2-2zm0 14H4v-6h16v6zm0-10H4V6h16v2z"/>
  </symbol>
  <!-- Target -->
  <symbol id="target" viewBox="0 0 24 24" fill="currentColor">
    <path d="M12 2C6.48 2 2 6.48 2 12s4.48 10 10 10 10-4.48 10-10S17.52 2 12 2zm0 18c-4.42 0-8-3.58-8-8s3.58-8 8-8 8 3.58 8 8-3.58 8-8 8zm0-14c-3.31 0-6 2.69-6 6s2.69 6 6 6 6-2.69 6-6-2.69-6-6-6zm0 10c-2.21 0-4-1.79-4-4s1.79-4 4-4 4 1.79 4 4-1.79 4-4 4zm0-6c-1.1 0-2 .9-2 2s.9 2 2 2 2-.9 2-2-.9-2-2-2z"/>
  </symbol>
  <!-- Vision / Strength (lightning or flex) -->
  <symbol id="vision" viewBox="0 0 24 24" fill="currentColor">
    <path d="M7 2v11h3v9l7-12h-4l4-8z"/>
  </symbol>
  <!-- Building -->
  <symbol id="building" viewBox="0 0 24 24" fill="currentColor">
    <path d="M12 7V3H2v18h20V7H12zM6 19H4v-2h2v2zm0-4H4v-2h2v2zm0-4H4V9h2v2zm0-4H4V5h2v2zm4 12H8v-2h2v2zm0-4H8v-2h2v2zm0-4H8V9h2v2zm0-4H8V5h2v2zm10 12h-8v-2h2v-2h-2v-2h2v-2h-2V9h8v10zm-2-8h-2v2h2v-2zm0 4h-2v2h2v-2z"/>
  </symbol>
  <!-- Map pin / Location -->
  <symbol id="map-pin" viewBox="0 0 24 24" fill="currentColor">
    <path d="M12 2C8.13 2 5 5.13 5 9c0 5.25 7 13 7 13s7-7.75 7-13c0-3.87-3.13-7-7-7zm0 9.5c-1.38 0-2.5-1.12-2.5-2.5s1.12-2.5 2.5-2.5 2.5 1.12 2.5 2.5-1.12 2.5-2.5 2.5z"/>
  </symbol>
  <!-- Homes / Community -->
  <symbol id="homes" viewBox="0 0 24 24" fill="currentColor">
    <path d="M10 20v-6h4v6h5v-8h3L12 3 2 12h3v8h5z"/>
  </symbol>
  <!-- Menu (hamburger) -->
  <symbol id="menu" viewBox="0 0 24 24" fill="currentColor">
    <path d="M3 18h18v-2H3v2zm0-5h18v-2H3v2zm0-7v2h18V6H3z"/>
  </symbol>
</svg>
